<svg width="368" height="344" viewBox="0 0 368 344" fill="none" xmlns="http://www.w3.org/2000/svg">
<path d="M0 27C0 12.0883 12.0883 0 27 0H341C355.912 0 368 12.0883 368 27V344H0V27Z" fill="#F1F3F4"/>
<path d="M27 0.5H341C355.636 0.5 367.5 12.3645 367.5 27V343.5H0.5V27C0.5 12.3644 12.3645 0.5 27 0.5Z" stroke="#DADCE0" stroke-opacity="0.5"/>
<path fill-rule="evenodd" clip-rule="evenodd" d="M12 37C12 29.8203 17.8203 24 25 24H343C350.18 24 356 29.8203 356 37V344H12V37Z" fill="white"/>
<rect x="20.5" y="32.5" width="327" height="29" rx="14.5" fill="white" stroke="#DFE3E6"/>
<path fill-rule="evenodd" clip-rule="evenodd" d="M38 42C36.8954 42 36 42.8954 36 44V50C36 51.1046 36.8954 52 38 52H154C155.105 52 156 51.1046 156 50V44C156 42.8954 155.105 42 154 42H38Z" fill="#F5F6F7"/>
<path d="M316 32H333C341.284 32 348 38.7157 348 47V47C348 55.2843 341.284 62 333 62H316V32Z" fill="#BDC1C6"/>
<mask id="mask0" mask-type="alpha" maskUnits="userSpaceOnUse" x="324" y="40" width="14" height="14">
<path fill-rule="evenodd" clip-rule="evenodd" d="M333.07 47.9525L337.368 52.25L336.25 53.3675L331.953 49.07C331.15 49.6475 330.182 50 329.125 50C326.433 50 324.25 47.8175 324.25 45.125C324.25 42.4325 326.433 40.25 329.125 40.25C331.818 40.25 334 42.4325 334 45.125C334 46.1825 333.648 47.15 333.07 47.9525ZM329.125 41.75C327.258 41.75 325.75 43.2575 325.75 45.125C325.75 46.9925 327.258 48.5 329.125 48.5C330.993 48.5 332.5 46.9925 332.5 45.125C332.5 43.2575 330.993 41.75 329.125 41.75Z" fill="white"/>
</mask>
<g mask="url(#mask0)">
<rect x="322" y="38" width="18" height="18" fill="white"/>
</g>
<path fill-rule="evenodd" clip-rule="evenodd" d="M20 78C20 73.5817 23.5817 70 28 70L340 70C344.418 70 348 73.5817 348 78V328C348 332.418 344.418 336 340 336H28C23.5817 336 20 332.418 20 328V78Z" fill="white"/>
</svg>
