<?xml version="1.0" encoding="UTF-8" standalone="no"?><!DOCTYPE svg PUBLIC "-//W3C//DTD SVG 1.1//EN" "http://www.w3.org/Graphics/SVG/1.1/DTD/svg11.dtd"><svg width="100%" height="100%" viewBox="0 0 8334 8334" version="1.1" xmlns="http://www.w3.org/2000/svg" xmlns:xlink="http://www.w3.org/1999/xlink" xml:space="preserve" xmlns:serif="http://www.serif.com/" style="fill-rule:evenodd;clip-rule:evenodd;stroke-linejoin:round;stroke-miterlimit:2;"><g><g transform="matrix(-83.3333,4.16343e-17,4.14652e-17,-83.3333,18359.3,26822.8)"><g transform="matrix(-0.680793,0.732476,-0.732476,-0.680793,553.82,351.95)"><text x="200.221px" y="296.65px" style="font-family:'Arial-BoldMT', 'Arial', sans-serif;font-weight:700;font-size:7px;fill:#00bbc0;">F</text></g><g transform="matrix(-0.767669,0.640847,-0.640847,-0.767669,540.96,403.527)"><text x="197.333px" y="299.823px" style="font-family:'Arial-BoldMT', 'Arial', sans-serif;font-weight:700;font-size:7px;fill:#00bbc0;">R</text></g><g transform="matrix(-0.841444,0.540345,-0.540345,-0.841444,520.007,453.561)"><text x="193.458px" y="303.075px" style="font-family:'Arial-BoldMT', 'Arial', sans-serif;font-weight:700;font-size:7px;fill:#00bbc0;">A</text></g><g transform="matrix(-0.908813,0.417204,-0.417204,-0.908813,488.76,504.839)"><text x="189.209px" y="305.833px" style="font-family:'Arial-BoldMT', 'Arial', sans-serif;font-weight:700;font-size:7px;fill:#00bbc0;">M</text></g><g transform="matrix(-0.957074,0.289845,-0.289845,-0.957074,449.23,549.941)"><text x="183.891px" y="308.236px" style="font-family:'Arial-BoldMT', 'Arial', sans-serif;font-weight:700;font-size:7px;fill:#00bbc0;">E</text></g><g transform="matrix(-0.988427,0.1517,-0.1517,-0.988427,403.762,588.524)"><text x="179.431px" y="309.664px" style="font-family:'Arial-BoldMT', 'Arial', sans-serif;font-weight:700;font-size:7px;fill:#00bbc0;">W</text></g><g transform="matrix(-1,-0.000508742,0.000508742,-1,345.613,621.336)"><text x="172.886px" y="310.624px" style="font-family:'Arial-BoldMT', 'Arial', sans-serif;font-weight:700;font-size:7px;fill:#00bbc0;">O</text></g><g transform="matrix(-0.990327,-0.13875,0.13875,-0.990327,290.147,641.477)"><text x="167.433px" y="310.625px" style="font-family:'Arial-BoldMT', 'Arial', sans-serif;font-weight:700;font-size:7px;fill:#00bbc0;">R</text></g><g transform="matrix(-0.964211,-0.265135,0.265135,-0.964211,236.835,651.875)"><text x="162.413px" y="309.953px" style="font-family:'Arial-BoldMT', 'Arial', sans-serif;font-weight:700;font-size:7px;fill:#00bbc0;">K</text></g><g transform="matrix(-0.884707,-0.466148,0.466148,-0.884707,146.887,650.696)"><text x="153.912px" y="307.183px" style="font-family:'Arial-BoldMT', 'Arial', sans-serif;font-weight:700;font-size:7px;fill:#00bbc0;">L</text></g><g transform="matrix(-0.841444,-0.540345,0.540345,-0.841444,111.574,643.065)"><g transform="matrix(7,0,0,7,150.136,305.163)"><path d="M0.029,-0.595l-0,-0.121l0.328,0l-0,0.121l-0.092,0l0,0.474l0.092,0l-0,0.121l-0.328,-0l-0,-0.121l0.092,0l-0,-0.474l-0.092,0Z" style="fill:#00bbc0;fill-rule:nonzero;"/></g></g><g transform="matrix(-0.779518,-0.62638,0.62638,-0.779518,72.7749,633.139)"><text x="147.818px" y="303.761px" style="font-family:'Arial-BoldMT', 'Arial', sans-serif;font-weight:700;font-size:7px;fill:#00bbc0;">O</text></g><g transform="matrix(-0.686783,-0.726862,0.726862,-0.686783,23.8799,610.961)"><text x="143.577px" y="300.335px" style="font-family:'Arial-BoldMT', 'Arial', sans-serif;font-weight:700;font-size:7px;fill:#00bbc0;">N</text></g></g><rect x="3960.42" y="508.333" width="454.167" height="445.97" style="fill:#ff812f;fill-opacity:0;"/><g transform="matrix(-83.3333,1.48974e-16,1.4683e-16,-83.3333,35324.2,7395.7)"><g transform="matrix(0.972121,0.23448,-0.23448,0.972121,10.7518,-89.2844)"><text x="380.845px" y="0.572px" style="font-family:'Arial-BoldMT', 'Arial', sans-serif;font-weight:700;font-size:7px;fill:#00bbc0;">F</text></g><g transform="matrix(0.935885,0.352306,-0.352306,0.935885,25.226,-135.547)"><text x="385.02px" y="1.534px" style="font-family:'Arial-BoldMT', 'Arial', sans-serif;font-weight:700;font-size:7px;fill:#00bbc0;">R</text></g><g transform="matrix(0.885419,0.464794,-0.464794,0.885419,46.1955,-180.781)"><text x="389.763px" y="3.305px" style="font-family:'Arial-BoldMT', 'Arial', sans-serif;font-weight:700;font-size:7px;fill:#00bbc0;">A</text></g><g transform="matrix(0.812097,0.583522,-0.583522,0.812097,77.3665,-228.996)"><text x="394.25px" y="5.631px" style="font-family:'Arial-BoldMT', 'Arial', sans-serif;font-weight:700;font-size:7px;fill:#00bbc0;">M</text></g><g transform="matrix(0.724766,0.688995,-0.688995,0.724766,116.063,-272.397)"><text x="398.978px" y="9.072px" style="font-family:'Arial-BoldMT', 'Arial', sans-serif;font-weight:700;font-size:7px;fill:#00bbc0;">E</text></g><g transform="matrix(0.618873,0.785491,-0.785491,0.618873,162.987,-311.433)"><text x="402.421px" y="12.239px" style="font-family:'Arial-BoldMT', 'Arial', sans-serif;font-weight:700;font-size:7px;fill:#00bbc0;">W</text></g><g transform="matrix(0.48828,0.872687,-0.872687,0.48828,223.249,-345.794)"><text x="406.483px" y="17.467px" style="font-family:'Arial-BoldMT', 'Arial', sans-serif;font-weight:700;font-size:7px;fill:#00bbc0;">O</text></g><g transform="matrix(0.357714,0.933831,-0.933831,0.357714,283.547,-367.802)"><text x="409.15px" y="22.226px" style="font-family:'Arial-BoldMT', 'Arial', sans-serif;font-weight:700;font-size:7px;fill:#00bbc0;">R</text></g><g transform="matrix(0.229331,0.973348,-0.973348,0.229331,342.961,-379.275)"><text x="410.991px" y="26.941px" style="font-family:'Arial-BoldMT', 'Arial', sans-serif;font-weight:700;font-size:7px;fill:#00bbc0;">K</text></g><g transform="matrix(0.00882491,0.999961,-0.999961,0.00882491,444.706,-377.185)"><text x="412.617px" y="35.732px" style="font-family:'Arial-BoldMT', 'Arial', sans-serif;font-weight:700;font-size:7px;fill:#00bbc0;">L</text></g><g transform="matrix(-0.0789449,0.996879,-0.996879,-0.0789449,485.094,-368.164)"><g transform="matrix(7,0,0,7,412.627,40.0168)"><path d="M0.029,-0.595l-0,-0.121l0.328,0l-0,0.121l-0.092,0l0,0.474l0.092,0l-0,0.121l-0.328,-0l-0,-0.121l0.092,0l-0,-0.474l-0.092,0Z" style="fill:#00bbc0;fill-rule:nonzero;"/></g></g><g transform="matrix(-0.185619,0.982622,-0.982622,-0.185619,531.029,-354.673)"><text x="412.488px" y="42.718px" style="font-family:'Arial-BoldMT', 'Arial', sans-serif;font-weight:700;font-size:7px;fill:#00bbc0;">O</text></g><g transform="matrix(-0.318547,0.947907,-0.947907,-0.318547,588.101,-326.638)"><text x="411.461px" y="48.074px" style="font-family:'Arial-BoldMT', 'Arial', sans-serif;font-weight:700;font-size:7px;fill:#00bbc0;">N</text></g></g><g transform="matrix(-83.3333,9.54891e-16,9.81601e-16,-83.3333,15741.5,7395.7)"><g transform="matrix(-0.280726,-0.959788,0.959788,-0.280726,81.8926,163.757)"><text x="102.307px" y="51.193px" style="font-family:'Arial-BoldMT', 'Arial', sans-serif;font-weight:700;font-size:7px;fill:#00bbc0;">F</text></g><g transform="matrix(-0.157567,-0.987508,0.987508,-0.157567,70.4798,154.311)"><text x="101.061px" y="47.093px" style="font-family:'Arial-BoldMT', 'Arial', sans-serif;font-weight:700;font-size:7px;fill:#00bbc0;">R</text></g><g transform="matrix(-0.0318938,-0.999491,0.999491,-0.0318938,61.3703,143.639)"><text x="100.25px" y="42.098px" style="font-family:'Arial-BoldMT', 'Arial', sans-serif;font-weight:700;font-size:7px;fill:#00bbc0;">A</text></g><g transform="matrix(0.110328,-0.993895,0.993895,0.110328,52.2183,132.396)"><text x="100.062px" y="37.03px" style="font-family:'Arial-BoldMT', 'Arial', sans-serif;font-weight:700;font-size:7px;fill:#00bbc0;">M</text></g><g transform="matrix(0.248413,-0.968654,0.968654,0.248413,45.4571,121.06)"><text x="100.74px" y="31.237px" style="font-family:'Arial-BoldMT', 'Arial', sans-serif;font-weight:700;font-size:7px;fill:#00bbc0;">E</text></g><g transform="matrix(0.387805,-0.921741,0.921741,0.387805,37.7501,110.194)"><text x="101.831px" y="26.678px" style="font-family:'Arial-BoldMT', 'Arial', sans-serif;font-weight:700;font-size:7px;fill:#00bbc0;">W</text></g><g transform="matrix(0.52812,-0.84917,0.84917,0.52812,31.7893,98.4059)"><text x="104.438px" y="20.6px" style="font-family:'Arial-BoldMT', 'Arial', sans-serif;font-weight:700;font-size:7px;fill:#00bbc0;">O</text></g><g transform="matrix(0.643057,-0.765818,0.765818,0.643057,26.0737,87.8828)"><text x="107.313px" y="15.971px" style="font-family:'Arial-BoldMT', 'Arial', sans-serif;font-weight:700;font-size:7px;fill:#00bbc0;">R</text></g><g transform="matrix(0.737505,-0.675341,0.675341,0.737505,20.8657,77.8253)"><text x="110.547px" y="12.071px" style="font-family:'Arial-BoldMT', 'Arial', sans-serif;font-weight:700;font-size:7px;fill:#00bbc0;">K</text></g><g transform="matrix(0.865993,-0.500057,0.500057,0.865993,12.5591,59.566)"><text x="117.417px" y="6.35px" style="font-family:'Arial-BoldMT', 'Arial', sans-serif;font-weight:700;font-size:7px;fill:#00bbc0;">L</text></g><g transform="matrix(0.905748,-0.423817,0.423817,0.905748,9.62476,51.7407)"><g transform="matrix(7,0,0,7,121.142,4.23086)"><path d="M0.029,-0.595l-0,-0.121l0.328,0l-0,0.121l-0.092,0l0,0.474l0.092,0l-0,0.121l-0.328,-0l-0,-0.121l0.092,0l-0,-0.474l-0.092,0Z" style="fill:#00bbc0;fill-rule:nonzero;"/></g></g><g transform="matrix(0.945337,-0.326096,0.326096,0.945337,5.77032,40.4583)"><text x="123.563px" y="3.018px" style="font-family:'Arial-BoldMT', 'Arial', sans-serif;font-weight:700;font-size:7px;fill:#00bbc0;">O</text></g><g transform="matrix(0.980538,-0.196329,0.196329,0.980538,2.25893,25.2957)"><text x="128.72px" y="1.254px" style="font-family:'Arial-BoldMT', 'Arial', sans-serif;font-weight:700;font-size:7px;fill:#00bbc0;">N</text></g></g><ellipse cx="1207.75" cy="2411.42" rx="192.511" ry="187.636" style="fill:#ff812f;"/><ellipse cx="4178.37" cy="7583.33" rx="192.511" ry="187.636" style="fill:#ff812f;"/><ellipse cx="7109.71" cy="2419.76" rx="192.511" ry="187.636" style="fill:#ff812f;"/></g></svg>