<?xml version="1.0" encoding="UTF-8" standalone="no"?><!DOCTYPE svg PUBLIC "-//W3C//DTD SVG 1.1//EN" "http://www.w3.org/Graphics/SVG/1.1/DTD/svg11.dtd"><svg width="100%" height="100%" viewBox="0 0 8334 8334" version="1.1" xmlns="http://www.w3.org/2000/svg" xmlns:xlink="http://www.w3.org/1999/xlink" xml:space="preserve" xmlns:serif="http://www.serif.com/" style="fill-rule:evenodd;clip-rule:evenodd;stroke-linejoin:round;stroke-miterlimit:2;"><circle cx="4166.67" cy="4166.67" r="4166.67" style="fill:#fff;"/><g id="Trasnparent"><path d="M3132.3,4491.96c-284.783,650.183 -4.569,1347.68 473.623,2057.39c0,0 0,-257.936 25.89,-442.613c174.324,287.751 306.156,599.291 391.386,924.909c220.821,-499.085 179.703,-998.169 -158.382,-1448.41l-7.614,351.038c-181.226,-387.668 -636.574,-619.658 -724.903,-1442.31" style="fill:#ff812f;fill-rule:nonzero;"/><path d="M3787.15,2217.84c-269.554,-79.365 -540.631,-160.256 -645.711,-187.729l-76.146,-21.367l-57.87,54.945c-103.557,99.206 -190.363,218.254 -236.05,352.564c-339.608,99.206 -583.273,233.517 -860.441,463.98c164.473,-482.295 434.028,-845.543 1031.01,-1024.11c127.924,-38.157 260.417,-74.787 382.249,-103.785c389.864,-91.575 501.036,-65.629 874.147,88.522c-339.607,-331.196 -645.711,-264.041 -1131.52,-178.571c248.234,-175.519 887.854,-381.563 1178.73,-381.563c80.714,-0 796.479,315.934 893.945,451.77c60.916,83.944 124.878,198.413 188.84,318.987c3.49,-42.647 3.999,-85.487 1.523,-128.205c-25.889,-117.522 -76.145,-230.464 -315.241,-431.929c296.967,73.26 598.502,183.15 813.231,410.561c76.145,80.892 193.409,441.087 191.886,483.822c-1.523,42.735 -27.412,320.513 -27.412,320.513l-184.272,-302.198c-71.576,0 -161.427,7.631 -245.187,0c9.137,7.631 16.752,16.789 24.366,24.42l-92.897,6.105c33.322,49.948 58.033,105.154 73.099,163.309c-30.855,-32.298 -63.932,-62.388 -98.988,-90.049c-43.923,-42.221 -93.055,-78.638 -146.199,-108.364c-28.935,-19.841 -57.871,-38.156 -82.237,-51.892c-16.136,-7.685 -32.963,-13.818 -50.256,-18.315c-257.371,-126.679 -589.364,-241.148 -589.364,-241.148c0,-0 59.393,102.259 117.264,206.044l-1.523,-0c-205.592,-48.84 -513.219,-120.574 -574.135,-123.626c-42.641,-0 -202.546,22.893 -354.837,47.313Zm1344.73,576.923c73.099,1.527 135.538,6.105 161.428,7.632c20.036,1.273 39.194,8.74 54.824,21.367l-216.252,-28.999Z" style="fill:#ff812f;fill-rule:nonzero;"/><path d="M4769.43,2152.21c204.069,-6.105 395.955,12.21 526.924,67.155l15.23,9.157c36.549,21.368 74.622,45.788 114.217,73.26l341.131,-22.894l44.164,38.157c102.035,91.575 196.455,227.411 274.123,338.828l147.722,213.675l362.451,245.726c74.622,51.893 132.493,126.679 117.264,222.833c-1.929,13.613 -5.509,26.939 -10.661,39.682c27.427,3.055 53.899,11.899 77.668,25.947c117.264,71.734 106.604,235.043 88.329,352.564c-10.66,65.629 -31.981,167.888 -60.916,228.938c-39.596,85.47 -108.126,160.256 -196.455,181.624l3.046,7.631c19.249,62.332 21.875,128.643 7.614,192.307c-106.603,523.505 -813.231,279.305 -967.044,1079.06l-25.889,132.784c-33.504,175.519 -141.63,294.567 -298.49,380.037c-80.714,224.359 -277.168,442.613 -493.421,505.189c26.035,-64.788 44.435,-132.401 54.825,-201.465c-161.428,166.361 -379.203,332.723 -607.639,381.563c191.886,-392.247 190.363,-578.45 -25.889,-1259.16c-28.936,94.628 -135.539,312.882 -135.539,312.882c-77.668,-221.307 -109.649,-987.485 -41.118,-1187.42c-271.077,210.623 -373.112,494.506 -406.616,773.81c-187.317,-227.412 -438.596,-909.646 -283.26,-1268.32c-88.328,59.523 -187.317,161.782 -255.848,245.726c-6.092,-583.028 278.692,-790.598 545.2,-1039.38l-197.978,-45.788c-100.511,-36.63 -213.206,-99.206 -275.645,-209.096c50.255,39.682 140.107,76.312 240.618,79.365c-187.317,-112.943 -252.802,-315.934 -127.924,-479.243c0,-0 321.333,42.735 403.57,67.155c46.49,17 90.53,40.094 130.97,68.681c-53.302,48.84 -161.428,161.783 -147.722,262.516c4.569,93.101 170.565,123.626 330.47,135.836c-80.713,105.311 -204.069,283.883 -278.691,488.4c124.884,-87.495 261.197,-157.341 405.093,-207.57c-87.452,106.441 -147.586,232.738 -175.134,367.827c75.169,-56.731 158.309,-101.993 246.71,-134.31c-27.412,146.52 -15.229,328.144 70.054,547.924c213.206,-523.504 752.314,-782.967 1190.91,-720.391c-170.565,15.263 -526.925,157.204 -630.482,404.457c-0,-0 315.241,-167.888 598.501,-140.415c-319.81,71.734 -703.582,363.248 -723.38,726.496c103.558,-250.306 373.112,-460.928 692.922,-454.823c-0,-0 92.897,-82.418 257.371,-54.945c-123.356,36.63 -179.703,112.942 -179.703,112.942c98.989,115.995 813.231,138.889 814.754,-265.568c-0,-50.366 -6.092,-105.311 -28.935,-144.994c-44.165,-79.365 -290.875,-132.783 -371.589,-129.731c-51.982,5.137 -102.052,22.386 -146.199,50.366c-44.147,27.98 -41.118,-45.787 10.661,-126.678c51.778,-80.892 223.866,-158.731 223.866,-158.731c0,0 6.092,45.788 28.936,59.524c15.229,7.631 190.363,79.365 315.241,131.258c98.989,-25.946 316.764,-109.89 155.336,-219.78l-461.44,-311.356c-135.538,-97.68 -249.756,-158.73 -287.829,-265.567l207.115,80.891c-73.099,-103.785 -170.565,-241.148 -252.802,-314.408l-222.344,15.263c33.322,49.947 58.033,105.154 73.099,163.308c-30.855,-32.298 -63.933,-62.388 -98.988,-90.048c-43.923,-42.222 -93.055,-78.639 -146.199,-108.364c-28.935,-19.842 -57.871,-38.157 -82.237,-51.893c-16.136,-7.684 -32.964,-13.817 -50.256,-18.315c-141.63,-70.207 -303.058,-134.31 -421.844,-180.097Zm-50.256,2530.53c-77.668,169.413 -112.695,299.145 -118.787,412.087c-4.379,91.308 6.955,182.693 33.504,270.147c36.55,132.784 106.603,277.778 124.878,409.035c88.329,-27.472 187.317,-73.26 220.821,-97.68c25.89,57.998 59.394,128.205 60.917,183.15l-0,10.684c-0,0 129.446,-59.524 199.5,-143.467l0,4.578c0.358,46.048 -8.443,91.71 -25.889,134.31c158.382,-73.26 234.527,-216.727 226.912,-370.879c-3.35,-57.685 -16.215,-114.417 -38.072,-167.887c-9.138,140.415 -45.687,186.202 -86.806,244.2l0,-3.053c1.523,-18.315 1.523,-35.103 1.523,-44.261l0,-7.631c0,-0 -47.21,48.84 -220.821,4.579c-9.917,22.306 -28.702,39.472 -51.779,47.313c29.125,-68.474 43.65,-142.298 42.642,-216.727c0.229,-37.989 -3.858,-75.881 -12.184,-112.943c-91.374,190.782 -191.886,231.99 -199.5,235.043l-1.523,-1.526c-94.42,-186.203 -94.42,-300.672 -102.035,-418.193c-20.106,38.426 -32.522,80.425 -36.549,123.626l-0,1.526c-24.335,-93.093 -35.107,-189.225 -31.981,-285.409c0.416,-70.468 5.503,-140.83 15.229,-210.622Zm799.525,737.179c73.099,-375.458 365.497,-772.283 676.169,-920.33c-335.039,77.839 -619.822,373.932 -740.131,729.549l25.889,62.576c18.156,40.91 30.954,84.003 38.073,128.205Zm785.818,-848.596c245.188,-155.677 176.657,-352.564 176.657,-352.564c-12.589,-2.032 -25.321,-3.053 -38.072,-3.052c-33.504,-1.527 -71.577,-36.63 -100.512,-47.314c-28.935,-10.684 -162.951,21.367 -162.951,21.367l144.676,30.525c25.889,85.47 18.275,239.622 -19.798,351.038Zm-711.196,-61.05c102.034,-61.05 197.977,-201.465 162.951,-329.67c-60.917,-4.579 -135.539,-42.735 -211.684,-59.524c54.824,106.838 82.237,273.199 48.733,389.194Zm1087.35,-992.063c-57.871,4.578 -222.344,47.313 -248.234,80.891c-15.229,19.841 -22.843,105.311 -24.366,178.571c-9.138,236.569 176.657,355.617 274.123,148.047c25.889,-54.945 120.309,-418.193 -1.523,-407.509Zm-1349.29,-561.661c-21.32,-6.105 -379.203,22.894 -411.184,13.736c-31.981,-9.157 -91.374,-74.786 -112.695,-80.891c-21.321,-6.105 -147.722,15.263 -147.722,15.263c0,-0 41.119,-53.419 161.428,-88.523c120.31,-35.104 405.093,-18.315 472.101,-13.736c67.007,4.578 94.42,73.26 138.584,94.627c44.164,21.368 441.642,233.517 441.642,233.517c-207.115,-77.839 -382.249,-125.153 -542.154,-173.993Zm-2118.36,157.204c-353.314,-134.31 -496.467,-578.449 -109.649,-947.802c100.512,27.472 234.527,67.155 363.974,105.311l4.569,1.526c82.237,24.42 164.474,48.84 234.527,68.682c109.649,33.577 225.39,70.207 280.215,96.154c32.486,27.862 63.494,57.41 92.897,88.522c42.641,44.261 120.309,132.784 173.611,202.992c-35.87,62.078 -67.911,126.301 -95.943,192.307c-111.552,1.962 -222.687,14.224 -331.993,36.63c56.347,-57.997 176.657,-100.732 275.645,-126.679c0,0 -109.649,-25.946 -257.37,21.368c59.393,-48.84 153.813,-102.259 272.599,-93.101c0,-0 -236.05,-222.833 -254.325,-228.938c-18.274,-6.105 -627.436,-169.414 -627.436,-169.414c-242.142,120.574 -271.077,544.872 -21.321,752.442Zm1426.96,-955.433c21.32,38.156 50.255,86.996 77.668,135.836l-1.523,-0c-124.878,-28.999 -287.829,-67.155 -409.661,-93.101c106.603,-18.315 220.821,-33.578 333.516,-42.735Z" style="fill:#ff812f;fill-rule:nonzero;"/><path d="M3168.85,3417.48c-0,0 -542.154,322.039 -577.181,1152.32c153.813,-311.355 427.936,-532.662 427.936,-532.662c-350.268,758.547 57.871,1547.62 -511.696,2246.64c95.943,-544.871 -298.489,-1204.21 -202.546,-1791.82c-351.791,517.399 -345.699,828.755 -345.699,828.755c-219.298,-265.568 -277.169,-705.129 -196.455,-1031.75c-102.035,57.997 -210.161,175.519 -309.15,260.989c102.035,-372.406 357.883,-615.08 682.262,-854.701c-0,-0 -21.321,206.044 -25.89,402.93c161.428,-271.673 470.578,-587.607 1058.42,-680.708" style="fill:#ff812f;fill-rule:nonzero;"/><path d="M2954.12,3119.86c-272.6,160.256 -531.493,376.984 -702.059,595.238c3.046,-190.781 24.367,-346.459 68.531,-492.979c-397.478,257.936 -746.223,657.814 -746.223,657.814c223.867,-703.602 689.876,-1143.16 1168.07,-1349.21c-23.511,137.679 -1.02,279.36 63.962,402.93c37.473,70.591 87.543,133.704 147.721,186.203" style="fill:#ff812f;fill-rule:nonzero;"/></g></svg>