<?xml version="1.0" encoding="UTF-8" standalone="no"?><!DOCTYPE svg PUBLIC "-//W3C//DTD SVG 1.1//EN" "http://www.w3.org/Graphics/SVG/1.1/DTD/svg11.dtd"><svg width="100%" height="100%" viewBox="0 0 550 550" version="1.1" xmlns="http://www.w3.org/2000/svg" xmlns:xlink="http://www.w3.org/1999/xlink" xml:space="preserve" xmlns:serif="http://www.serif.com/" style="fill-rule:evenodd;clip-rule:evenodd;"><circle cx="275" cy="275" r="275" style="fill:#fff;"/><g id="Trasnparent"><path d="M206.732,308.161c-18.796,42.912 -0.301,88.947 31.259,135.788c0,-0 0,-17.024 1.709,-29.213c11.505,18.992 20.206,39.553 25.831,61.044c14.575,-32.939 11.861,-65.879 -10.453,-95.595l-0.502,23.168c-11.961,-25.586 -42.014,-40.897 -47.844,-95.192" style="fill:#ff812f;fill-rule:nonzero;"/><path d="M249.952,158.07c-17.79,-5.238 -35.682,-10.577 -42.617,-12.391l-5.025,-1.41l-3.82,3.627c-6.835,6.547 -12.564,14.404 -15.579,23.269c-22.414,6.547 -38.496,15.412 -56.789,30.623c10.855,-31.832 28.646,-55.806 68.046,-67.592c8.443,-2.518 17.188,-4.936 25.229,-6.85c25.731,-6.044 33.068,-4.331 57.693,5.843c-22.414,-21.859 -42.617,-17.427 -74.68,-11.786c16.383,-11.584 58.598,-25.183 77.796,-25.183c5.327,-0 52.568,20.851 59,29.817c4.021,5.54 8.242,13.095 12.464,21.053c0.23,-2.815 0.264,-5.642 0.1,-8.462c-1.708,-7.756 -5.025,-15.21 -20.805,-28.507c19.599,4.835 39.501,12.088 53.673,27.097c5.025,5.339 12.765,29.112 12.664,31.932c-0.1,2.821 -1.809,21.154 -1.809,21.154l-12.162,-19.945c-4.724,-0 -10.654,0.504 -16.182,-0c0.603,0.504 1.105,1.108 1.608,1.612l-6.131,0.403c2.199,3.296 3.83,6.94 4.824,10.778c-2.036,-2.132 -4.219,-4.118 -6.533,-5.943c-2.899,-2.787 -6.142,-5.19 -9.649,-7.152c-1.91,-1.31 -3.82,-2.519 -5.428,-3.425c-1.065,-0.507 -2.175,-0.912 -3.317,-1.209c-16.986,-8.361 -38.898,-15.916 -38.898,-15.916c0,0 3.92,6.749 7.74,13.599l-0.101,0c-13.569,-3.223 -33.872,-7.958 -37.893,-8.159c-2.814,-0 -13.368,1.511 -23.419,3.123Zm88.752,38.077c4.824,0.1 8.945,0.402 10.654,0.503c1.323,0.084 2.587,0.577 3.619,1.41l-14.273,-1.913Z" style="fill:#ff812f;fill-rule:nonzero;"/><path d="M314.782,153.738c13.469,-0.403 26.133,0.806 34.777,4.432l1.005,0.605c2.413,1.41 4.925,3.022 7.539,4.835l22.514,-1.511l2.915,2.518c6.734,6.044 12.966,15.009 18.092,22.363l9.75,14.102l23.922,16.218c4.925,3.425 8.744,8.361 7.739,14.707c-0.127,0.899 -0.364,1.778 -0.704,2.619c1.811,0.202 3.558,0.786 5.127,1.713c7.739,4.734 7.035,15.513 5.829,23.269c-0.703,4.332 -2.11,11.081 -4.02,15.11c-2.614,5.641 -7.137,10.577 -12.966,11.987l0.201,0.504c1.27,4.114 1.444,8.49 0.502,12.692c-7.035,34.551 -53.673,18.434 -63.825,71.218l-1.708,8.764c-2.212,11.584 -9.348,19.441 -19.701,25.082c-5.327,14.808 -18.293,29.213 -32.565,33.343c1.718,-4.276 2.932,-8.739 3.618,-13.297c-10.654,10.98 -25.027,21.96 -40.104,25.183c12.664,-25.888 12.564,-38.178 -1.709,-83.104c-1.91,6.245 -8.945,20.65 -8.945,20.65c-5.126,-14.606 -7.237,-65.174 -2.714,-78.37c-17.891,13.901 -24.626,32.637 -26.837,51.071c-12.363,-15.009 -28.947,-60.036 -18.695,-83.708c-5.83,3.928 -12.363,10.677 -16.886,16.218c-0.402,-38.48 18.394,-52.18 35.983,-68.599l-13.066,-3.022c-6.634,-2.418 -14.072,-6.548 -18.193,-13.801c3.317,2.619 9.247,5.037 15.881,5.238c-12.363,-7.454 -16.685,-20.851 -8.443,-31.63c0,0 21.208,2.821 26.636,4.433c3.068,1.122 5.975,2.646 8.644,4.533c-3.518,3.223 -10.655,10.677 -9.75,17.326c0.302,6.144 11.257,8.159 21.811,8.965c-5.327,6.95 -13.469,18.736 -18.394,32.234c8.243,-5.774 17.239,-10.384 26.736,-13.699c-5.771,7.025 -9.74,15.36 -11.558,24.276c4.961,-3.744 10.448,-6.731 16.283,-8.864c-1.81,9.67 -1.006,21.657 4.623,36.163c14.072,-34.552 49.653,-51.676 78.6,-47.546c-11.257,1.007 -34.777,10.375 -41.612,26.694c0,0 20.806,-11.081 39.501,-9.267c-21.107,4.734 -46.436,23.974 -47.743,47.948c6.835,-16.52 24.626,-30.421 45.733,-30.018c0,0 6.131,-5.44 16.987,-3.626c-8.142,2.417 -11.861,7.454 -11.861,7.454c6.534,7.656 53.674,9.167 53.774,-17.528c0,-3.324 -0.402,-6.95 -1.91,-9.569c-2.914,-5.238 -19.197,-8.764 -24.524,-8.562c-3.431,0.339 -6.736,1.477 -9.65,3.324c-2.913,1.846 -2.713,-3.022 0.704,-8.361c3.417,-5.339 14.775,-10.476 14.775,-10.476c0,-0 0.402,3.022 1.91,3.928c1.005,0.504 12.564,5.238 20.806,8.663c6.533,-1.712 20.906,-7.252 10.252,-14.505l-30.455,-20.55c-8.946,-6.447 -16.484,-10.476 -18.997,-17.527l13.67,5.339c-4.825,-6.85 -11.257,-15.916 -16.685,-20.751l-14.675,1.007c2.199,3.297 3.83,6.94 4.825,10.778c-2.037,-2.131 -4.22,-4.117 -6.533,-5.943c-2.899,-2.786 -6.142,-5.19 -9.65,-7.152c-1.909,-1.309 -3.819,-2.518 -5.427,-3.425c-1.065,-0.507 -2.176,-0.912 -3.317,-1.208c-9.348,-4.634 -20.002,-8.865 -27.842,-11.887Zm-3.317,167.015c-5.126,11.181 -7.438,19.743 -7.84,27.198c-0.289,6.026 0.459,12.057 2.212,17.829c2.412,8.764 7.035,18.334 8.242,26.997c5.829,-1.814 12.362,-4.836 14.574,-6.447c1.708,3.828 3.92,8.461 4.02,12.088l0,0.705c0,-0 8.544,-3.929 13.167,-9.469l0,0.302c0.024,3.039 -0.557,6.053 -1.708,8.865c10.453,-4.836 15.478,-14.305 14.976,-24.479c-0.221,-3.807 -1.07,-7.551 -2.513,-11.08c-0.603,9.267 -3.015,12.289 -5.729,16.117l-0,-0.201c0.1,-1.209 0.1,-2.317 0.1,-2.922l0,-0.503c0,-0 -3.116,3.223 -14.574,0.302c-0.654,1.472 -1.894,2.605 -3.417,3.123c1.922,-4.52 2.881,-9.392 2.814,-14.304c0.015,-2.508 -0.255,-5.008 -0.804,-7.455c-6.031,12.592 -12.664,15.312 -13.167,15.513l-0.101,-0.1c-6.231,-12.29 -6.231,-19.845 -6.734,-27.601c-1.327,2.536 -2.146,5.308 -2.412,8.159l-0,0.101c-1.606,-6.144 -2.317,-12.489 -2.111,-18.837c0.028,-4.651 0.363,-9.295 1.005,-13.901Zm52.769,48.654c4.824,-24.781 24.123,-50.971 44.627,-60.742c-22.112,5.137 -40.908,24.679 -48.849,48.15l1.709,4.13c1.198,2.7 2.043,5.544 2.513,8.462Zm51.864,-56.008c16.182,-10.274 11.659,-23.269 11.659,-23.269c-0.831,-0.134 -1.671,-0.201 -2.513,-0.201c-2.211,-0.101 -4.724,-2.418 -6.633,-3.123c-1.91,-0.705 -10.755,1.41 -10.755,1.41l9.549,2.015c1.708,5.641 1.206,15.815 -1.307,23.168Zm-46.939,-4.029c6.734,-4.029 13.066,-13.297 10.755,-21.758c-4.021,-0.302 -8.946,-2.821 -13.971,-3.929c3.618,7.051 5.427,18.031 3.216,25.687Zm71.765,-65.476c-3.819,0.302 -14.674,3.122 -16.383,5.339c-1.005,1.309 -1.508,6.95 -1.608,11.785c-0.603,15.614 11.659,23.471 18.092,9.771c1.709,-3.626 7.94,-27.6 -0.101,-26.895Zm-89.053,-37.07c-1.407,-0.403 -25.027,1.511 -27.138,0.907c-2.111,-0.605 -6.031,-4.936 -7.438,-5.339c-1.407,-0.403 -9.75,1.007 -9.75,1.007c0,0 2.714,-3.525 10.655,-5.842c7.94,-2.317 26.736,-1.209 31.158,-0.907c4.423,0.302 6.232,4.835 9.147,6.246c2.915,1.41 29.148,15.412 29.148,15.412c-13.669,-5.138 -25.228,-8.26 -35.782,-11.484Zm-139.812,10.376c-23.319,-8.865 -32.767,-38.178 -7.237,-62.555c6.634,1.813 15.479,4.432 24.023,6.95l0.301,0.101c5.428,1.612 10.855,3.223 15.479,4.533c7.237,2.216 14.876,4.634 18.494,6.346c2.144,1.839 4.191,3.789 6.131,5.843c2.815,2.921 7.941,8.763 11.459,13.397c-2.368,4.097 -4.482,8.336 -6.333,12.692c-7.362,0.13 -14.697,0.939 -21.911,2.418c3.719,-3.828 11.659,-6.648 18.193,-8.361c-0,0 -7.237,-1.712 -16.987,1.41c3.92,-3.223 10.152,-6.749 17.992,-6.144c-0,-0 -15.58,-14.707 -16.786,-15.11c-1.206,-0.403 -41.411,-11.182 -41.411,-11.182c-15.981,7.958 -17.891,35.962 -1.407,49.662Zm94.18,-63.059c1.407,2.518 3.317,5.742 5.126,8.965l-0.101,0c-8.242,-1.914 -18.996,-4.432 -27.037,-6.144c7.035,-1.209 14.574,-2.217 22.012,-2.821Z" style="fill:#ff812f;fill-rule:nonzero;"/><path d="M209.144,237.245c0,0 -35.782,21.255 -38.094,76.054c10.152,-20.55 28.244,-35.156 28.244,-35.156c-23.117,50.064 3.82,102.143 -33.772,148.278c6.333,-35.961 -19.7,-79.478 -13.368,-118.26c-23.218,34.149 -22.816,54.698 -22.816,54.698c-14.474,-17.527 -18.293,-46.538 -12.966,-68.095c-6.734,3.828 -13.871,11.584 -20.404,17.225c6.734,-24.579 23.62,-40.595 45.029,-56.41c0,-0 -1.407,13.599 -1.708,26.593c10.654,-17.93 31.058,-38.782 69.855,-44.927" style="fill:#ff812f;fill-rule:nonzero;"/><path d="M194.972,217.603c-17.991,10.576 -35.078,24.881 -46.336,39.285c0.201,-12.591 1.608,-22.866 4.523,-32.536c-26.233,17.023 -49.25,43.415 -49.25,43.415c14.775,-46.437 45.531,-75.448 77.092,-89.047c-1.552,9.087 -0.067,18.438 4.222,26.593c2.473,4.659 5.777,8.825 9.749,12.29" style="fill:#ff812f;fill-rule:nonzero;"/></g><g><ellipse cx="79" cy="155.794" rx="12.396" ry="12.423" style="fill:#ff812f;stroke:#ff812f;stroke-width:1.04px;"/><ellipse cx="475.062" cy="158.998" rx="12.396" ry="12.423" style="fill:#ff812f;stroke:#ff812f;stroke-width:1.04px;"/><ellipse cx="271.041" cy="505.832" rx="12.396" ry="12.423" style="fill:#ff812f;stroke:#ff812f;stroke-width:1.04px;"/><g transform="matrix(0.725896,-0.687629,0.686121,0.727491,-54.3181,116.589)"><text x="119.291px" y="126.824px" style="font-family:'ArialMT', 'Arial', sans-serif;font-size:37.543px;fill:#00bbc0;stroke:#00bbc0;stroke-width:2.1px;">F</text></g><g transform="matrix(0.799293,-0.599917,0.598601,0.80105,-39.779,103.236)"><text x="135.031px" y="111.728px" style="font-family:'ArialMT', 'Arial', sans-serif;font-size:37.553px;fill:#00bbc0;stroke:#00bbc0;stroke-width:2.09px;">R</text></g><g transform="matrix(0.868482,-0.493447,0.492365,0.870391,-25.167,90.7084)"><text x="159.229px" y="93.647px" style="font-family:'ArialMT', 'Arial', sans-serif;font-size:37.562px;fill:#00bbc0;stroke:#00bbc0;stroke-width:2.09px;">A</text></g><g transform="matrix(0.929413,-0.364658,0.363859,0.931455,-16.8534,71.5454)"><text x="180.896px" y="81.412px" style="font-family:'ArialMT', 'Arial', sans-serif;font-size:37.571px;fill:#00bbc0;stroke:#00bbc0;stroke-width:2.09px;">M</text></g><g transform="matrix(0.968334,-0.241784,0.241253,0.970463,-10.1381,53.1574)"><text x="211.333px" y="69.761px" style="font-family:'ArialMT', 'Arial', sans-serif;font-size:37.578px;fill:#00bbc0;stroke:#00bbc0;stroke-width:2.09px;">E</text></g><g transform="matrix(0.993608,-0.0918509,0.0916495,0.995791,-4.32824,21.6674)"><text x="232.989px" y="63.476px" style="font-family:'ArialMT', 'Arial', sans-serif;font-size:37.582px;fill:#00bbc0;stroke:#00bbc0;stroke-width:2.09px;">W</text></g><g transform="matrix(0.995277,0.0713242,-0.0711677,0.997464,5.44849,-18.802)"><text x="265.708px" y="58.925px" style="font-family:'ArialMT', 'Arial', sans-serif;font-size:37.582px;fill:#00bbc0;stroke:#00bbc0;stroke-width:2.09px;">O</text></g><g transform="matrix(0.977269,0.202293,-0.201849,0.979417,18.8017,-58.1572)"><text x="293.604px" y="60.084px" style="font-family:'ArialMT', 'Arial', sans-serif;font-size:37.579px;fill:#00bbc0;stroke:#00bbc0;stroke-width:2.09px;">R</text></g><g transform="matrix(0.945815,0.31929,-0.31859,0.947893,38.204,-98.7193)"><text x="319.875px" y="65.512px" style="font-family:'ArialMT', 'Arial', sans-serif;font-size:37.574px;fill:#00bbc0;stroke:#00bbc0;stroke-width:2.09px;">K</text></g><g transform="matrix(0.88363,0.465527,-0.464506,0.885572,79.6489,-160.791)"><text x="365.062px" y="80.013px" style="font-family:'ArialMT', 'Arial', sans-serif;font-size:37.565px;fill:#00bbc0;stroke:#00bbc0;stroke-width:2.09px;">L</text></g><g transform="matrix(0.847219,0.529427,-0.528266,0.849081,106.32,-189.692)"><text x="384.01px" y="90.202px" style="font-family:'ArialMT', 'Arial', sans-serif;font-size:37.559px;fill:#00bbc0;stroke:#00bbc0;stroke-width:2.09px;">I</text></g><g transform="matrix(0.793104,0.608147,-0.606813,0.794848,139.231,-219.561)"><text x="393.208px" y="95.38px" style="font-family:'ArialMT', 'Arial', sans-serif;font-size:37.552px;fill:#00bbc0;stroke:#00bbc0;stroke-width:2.09px;">O</text></g><g transform="matrix(0.703855,0.710344,-0.708786,0.705402,204.077,-262.789)"><text x="417.083px" y="113.659px" style="font-family:'ArialMT', 'Arial', sans-serif;font-size:37.542px;fill:#00bbc0;stroke:#00bbc0;stroke-width:2.09px;">N</text></g><g transform="matrix(0.26199,0.965071,-0.962954,0.262566,554.861,-308.868)"><text x="479.521px" y="208.701px" style="font-family:'ArialMT', 'Arial', sans-serif;font-size:37.577px;fill:#00bbc0;stroke:#00bbc0;stroke-width:2.09px;">F</text></g><g transform="matrix(0.152314,0.988332,-0.986165,0.152649,638.019,-285.103)"><text x="485.417px" y="229.716px" style="font-family:'ArialMT', 'Arial', sans-serif;font-size:37.581px;fill:#00bbc0;stroke:#00bbc0;stroke-width:2.09px;">R</text></g><g transform="matrix(0.0299208,0.999552,-0.99736,0.0299866,734.312,-237.098)"><text x="489.583px" y="260.064px" style="font-family:'ArialMT', 'Arial', sans-serif;font-size:37.582px;fill:#00bbc0;stroke:#00bbc0;stroke-width:2.09px;">A</text></g><g transform="matrix(-0.120071,0.992765,-0.990588,-0.120335,831.296,-168.197)"><text x="490.531px" y="284.545px" style="font-family:'ArialMT', 'Arial', sans-serif;font-size:37.581px;fill:#00bbc0;stroke:#00bbc0;stroke-width:2.08px;">M</text></g><g transform="matrix(-0.242605,0.970125,-0.967998,-0.243139,911.307,-77.9338)"><text x="486.479px" y="316.949px" style="font-family:'ArialMT', 'Arial', sans-serif;font-size:37.578px;fill:#00bbc0;stroke:#00bbc0;stroke-width:2.09px;">E</text></g><g transform="matrix(-0.386632,0.922234,-0.920212,-0.387482,980.108,26.072)"><text x="481.823px" y="339.05px" style="font-family:'ArialMT', 'Arial', sans-serif;font-size:37.57px;fill:#00bbc0;stroke:#00bbc0;stroke-width:2.09px;">W</text></g><g transform="matrix(-0.5313,0.847184,-0.845326,-0.532468,1031.72,166.321)"><text x="470.312px" y="368.531px" style="font-family:'ArialMT', 'Arial', sans-serif;font-size:37.559px;fill:#00bbc0;stroke:#00bbc0;stroke-width:2.09px;">O</text></g><g transform="matrix(-0.638371,0.769729,-0.768041,-0.639774,1048.71,291.394)"><text x="456.364px" y="391.926px" style="font-family:'ArialMT', 'Arial', sans-serif;font-size:37.549px;fill:#00bbc0;stroke:#00bbc0;stroke-width:2.09px;">R</text></g><g transform="matrix(-0.725896,0.687629,-0.686121,-0.727491,1041.16,410.748)"><text x="439.229px" y="412.607px" style="font-family:'ArialMT', 'Arial', sans-serif;font-size:37.543px;fill:#00bbc0;stroke:#00bbc0;stroke-width:2.1px;">K</text></g><g transform="matrix(-0.827716,0.559686,-0.558459,-0.829535,990.706,593.03)"><text x="405.135px" y="448.081px" style="font-family:'ArialMT', 'Arial', sans-serif;font-size:37.557px;fill:#00bbc0;stroke:#00bbc0;stroke-width:2.09px;">L</text></g><g transform="matrix(-0.865585,0.498556,-0.497463,-0.867487,951.302,666.061)"><text x="387.25px" y="460.044px" style="font-family:'ArialMT', 'Arial', sans-serif;font-size:37.562px;fill:#00bbc0;stroke:#00bbc0;stroke-width:2.09px;">I</text></g><g transform="matrix(-0.906318,0.41922,-0.418301,-0.90831,916.104,730.167)"><text x="378.364px" y="465.744px" style="font-family:'ArialMT', 'Arial', sans-serif;font-size:37.568px;fill:#00bbc0;stroke:#00bbc0;stroke-width:2.09px;">O</text></g><g transform="matrix(-0.955352,0.28923,-0.288596,-0.957452,824.434,834.642)"><text x="351.041px" y="478.261px" style="font-family:'ArialMT', 'Arial', sans-serif;font-size:37.576px;fill:#00bbc0;stroke:#00bbc0;stroke-width:2.09px;">N</text></g><g transform="matrix(-0.951082,-0.303096,0.302432,-0.953172,283.226,1013.96)"><text x="220.333px" y="484.943px" style="font-family:'ArialMT', 'Arial', sans-serif;font-size:37.575px;fill:#00bbc0;stroke:#00bbc0;stroke-width:2.09px;">F</text></g><g transform="matrix(-0.911237,-0.408321,0.407425,-0.91324,186.373,996.976)"><text x="199.521px" y="478.512px" style="font-family:'ArialMT', 'Arial', sans-serif;font-size:37.569px;fill:#00bbc0;stroke:#00bbc0;stroke-width:2.09px;">R</text></g><g transform="matrix(-0.852549,-0.520724,0.519582,-0.854423,77.0371,953.34)"><text x="172.208px" y="465.734px" style="font-family:'ArialMT', 'Arial', sans-serif;font-size:37.56px;fill:#00bbc0;stroke:#00bbc0;stroke-width:2.09px;">A</text></g><g transform="matrix(-0.768042,-0.639776,0.638373,-0.76973,-22.6225,898.285)"><text x="150.791px" y="453.071px" style="font-family:'ArialMT', 'Arial', sans-serif;font-size:37.549px;fill:#00bbc0;stroke:#00bbc0;stroke-width:2.09px;">M</text></g><g transform="matrix(-0.682091,-0.731267,0.729664,-0.68359,-103.608,819.458)"><text x="125.833px" y="432.077px" style="font-family:'ArialMT', 'Arial', sans-serif;font-size:37.544px;fill:#00bbc0;stroke:#00bbc0;stroke-width:2.09px;">E</text></g><g transform="matrix(-0.558458,-0.829533,0.827714,-0.559685,-173.297,740.199)"><text x="109.833px" y="416.167px" style="font-family:'ArialMT', 'Arial', sans-serif;font-size:37.557px;fill:#00bbc0;stroke:#00bbc0;stroke-width:2.09px;">W</text></g><g transform="matrix(-0.4183,-0.908309,0.906317,-0.419219,-223.054,635.708)"><text x="91.531px" y="389.348px" style="font-family:'ArialMT', 'Arial', sans-serif;font-size:37.568px;fill:#00bbc0;stroke:#00bbc0;stroke-width:2.09px;">O</text></g><g transform="matrix(-0.300531,-0.953772,0.951681,-0.301191,-242.588,550.005)"><text x="79.916px" y="364.115px" style="font-family:'ArialMT', 'Arial', sans-serif;font-size:37.575px;fill:#00bbc0;stroke:#00bbc0;stroke-width:2.08px;">R</text></g><g transform="matrix(-0.180479,-0.983579,0.981422,-0.180875,-247.318,470.39)"><text x="71.885px" y="338.465px" style="font-family:'ArialMT', 'Arial', sans-serif;font-size:37.58px;fill:#00bbc0;stroke:#00bbc0;stroke-width:2.09px;">K</text></g><g transform="matrix(-0.0199522,-0.999801,0.997608,-0.019996,-230.488,358.345)"><text x="60.062px" y="292.447px" style="font-family:'ArialMT', 'Arial', sans-serif;font-size:37.582px;fill:#00bbc0;stroke:#00bbc0;stroke-width:2.09px;">L</text></g><g transform="matrix(0.0498284,-0.998758,0.996568,0.0499379,-213.197,317.027)"><text x="59.739px" y="270.89px" style="font-family:'ArialMT', 'Arial', sans-serif;font-size:37.582px;fill:#00bbc0;stroke:#00bbc0;stroke-width:2.09px;">I</text></g><g transform="matrix(0.144563,-0.989496,0.987326,0.144881,-205.887,281.762)"><text x="59.781px" y="260.325px" style="font-family:'ArialMT', 'Arial', sans-serif;font-size:37.581px;fill:#00bbc0;stroke:#00bbc0;stroke-width:2.09px;">O</text></g><g transform="matrix(0.276921,-0.960893,0.958786,0.277529,-174.67,228.158)"><text x="64.114px" y="230.53px" style="font-family:'ArialMT', 'Arial', sans-serif;font-size:37.576px;fill:#00bbc0;stroke:#00bbc0;stroke-width:2.09px;">N</text></g></g></svg>