<svg width="52" height="52" viewBox="0 0 52 52" fill="none" xmlns="http://www.w3.org/2000/svg">
<path d="M26.0001 47.6667C37.9663 47.6667 47.6668 37.9662 47.6668 26C47.6668 14.0338 37.9663 4.33331 26.0001 4.33331C14.0339 4.33331 4.33337 14.0338 4.33337 26C4.33337 37.9662 14.0339 47.6667 26.0001 47.6667Z" fill="#FF8946"/>
<path d="M38.3067 39.6955V36.5543C38.3067 34.8881 37.6401 33.2901 36.4537 32.1119C35.2672 30.9337 33.658 30.2719 31.98 30.2719H19.3267C17.6487 30.2719 16.0395 30.9337 14.853 32.1119C13.6666 33.2901 13 34.8881 13 36.5543V39.6955" stroke="white" stroke-width="3" stroke-linecap="round" stroke-linejoin="round"/>
<path d="M25.5667 26.1944C29.0608 26.1944 31.8933 23.3816 31.8933 19.9119C31.8933 16.4423 29.0608 13.6295 25.5667 13.6295C22.0725 13.6295 19.24 16.4423 19.24 19.9119C19.24 23.3816 22.0725 26.1944 25.5667 26.1944Z" stroke="white" stroke-width="3" stroke-linecap="round" stroke-linejoin="round"/>
</svg>
